<?xml version="1.0" standalone="yes"?>
<svg xmlns="http://www.w3.org/2000/svg" width="2668" height="2669">
<path style="fill:#ffffff; stroke:none;" d="M0 0L0 1060L1 1060C1 973.15 39.9186 889.439 110 836.873C132.706 819.843 158.132 805.673 185 796.344C198.34 791.712 216.82 789.484 221.776 774C225.925 761.04 223 743.529 223 730L223 638L223 371C223 329.667 220.179 287.036 225.285 246C231.572 195.47 251.876 147.272 282.887 107C325.644 51.4761 391.243 16.0879 460 5.42432C501.197 -0.964844 543.404 1 585 1C650.704 1 716.355 2 782 2C1223.02 2 1664.05 1 2105 1L2088 0L2052 0L1927 0L1495 0L0 0z"/>
<path style="fill:#ffcb01; stroke:none;" d="M223 1336L223 2002C223 2108.81 206.573 2231.58 269.745 2325C294.786 2362.03 329.563 2391.41 369 2412.22C383.594 2419.92 398.679 2426.33 414 2432.4C422.454 2435.75 431.315 2437.33 437.073 2445.01C452.061 2465.02 443.203 2497.58 446.282 2521C453.03 2572.32 480.816 2620.25 527 2645.69C543.754 2654.92 565.065 2665.35 584 2668.67C597.272 2671 612.527 2669 626 2669L709 2669L811 2669C827.073 2669 845.15 2671.32 861 2668.67C923.599 2658.22 979.171 2607.72 995.116 2547C1003.69 2514.36 1001 2481.27 1001 2448L1667 2448C1667 2509.75 1667.1 2571.92 1714.09 2618.91C1737.6 2642.42 1775.68 2663.75 1809 2668.79C1832.55 2672.35 1859.16 2669 1883 2669L1995 2669L2055 2669C2064.13 2669 2075.08 2670.66 2084 2668.7C2102.53 2664.63 2123.3 2654.74 2140 2645.69C2186.65 2620.4 2214.72 2574.93 2221.72 2523C2223.78 2507.67 2224 2492.45 2224 2477C2224 2467.56 2223.88 2456 2229.64 2448C2235.58 2439.76 2245.88 2436.35 2255 2432.95C2268.81 2427.8 2283 2422.68 2296 2415.69C2337.06 2393.63 2372.61 2363.67 2398.97 2325C2422.84 2290 2438.59 2248.21 2442.83 2206C2444.51 2189.32 2443.31 2172.72 2444.04 2156C2446.26 2105.15 2445 2053.95 2445 2003L2445 1336C2502.75 1336 2561.15 1337.1 2608 1297.56C2632.95 1276.51 2650.09 1247.72 2660.33 1217C2662.68 1209.97 2666.69 1202.28 2667.79 1195C2671.45 1170.81 2668 1143.48 2668 1119C2668 1087.23 2671.21 1053.57 2667.83 1022C2666.26 1007.42 2660.62 991.87 2656 978C2645.49 946.476 2632.79 916.52 2612.35 890C2584.48 853.839 2548.9 823.521 2507 804.861C2487.93 796.369 2451.26 793.806 2446.02 770C2443.03 756.432 2445 740.85 2445 727L2445 645C2445 564.675 2443.61 484.381 2444 404C2444.25 352.162 2450.67 298.599 2443.72 247C2430.09 145.835 2361.59 59.7212 2267 22C2232.72 8.32764 2194.94 0.442871 2158 0.00390625C2043.79 -1.35303 1929.21 2 1815 2L857 2C767.95 2 679.058 1 590 1C552.095 1 513.708 -0.603271 476 3.16895C421.871 8.58374 370.11 28.6895 327 61.8875C272.276 104.03 236.29 169.989 226.272 238C220.8 275.143 223 313.516 223 351L223 630L223 722C223 737.086 224.457 753.004 222.826 768C220.242 791.768 186.755 794.642 169 802.281C125.069 821.18 86.7789 850.169 57.4252 888C28.3061 925.529 9.61446 971.995 3.28241 1019C-1.47291 1054.3 0 1090.42 0 1126C0 1186.82 4.37801 1245.55 52 1289.91C101.191 1335.73 159.946 1336 223 1336z"/>
<path style="fill:#ffffff; stroke:none;" d="M2164 0L2164 1C2196.6 1 2229.52 8.40015 2260 19.6814C2358.22 56.0293 2428.29 143.755 2443.57 247C2451.07 297.639 2444.61 351.053 2444 402C2443.14 475.024 2445 548.048 2445 621L2445 723C2445 739.005 2441.97 758.595 2446.77 774C2451.41 788.86 2467.17 790.724 2480 795C2504.59 803.194 2527.8 814.424 2549 829.424C2610.18 872.712 2656.87 944.808 2667 1020L2668 1020L2668 0L2164 0M719 225.424C669.258 231.958 625.276 247.556 592.46 288C524.151 372.186 559.658 503.741 660 543.55C701.452 559.995 745.341 557 789 557L978 557L1661 557L1878 557C1923.32 557 1970.47 560.941 2013 542.138C2119.42 495.093 2145.07 346.816 2058 268.17C2033.11 245.689 2001.92 232.53 1969 227.424C1943.02 223.395 1916.23 225 1890 225L1765 225L1376 225L936 225L792 225C768.198 225 742.592 222.325 719 225.424M613 669.424C588.916 672.586 565.599 674.951 543 684.861C529.119 690.949 515.617 698.477 504 708.296C431.561 769.523 445 871.126 445 956L445 1270C445 1359.72 431.237 1469.8 517 1527.33C565.908 1560.14 622.834 1557 679 1557L934 1557L1711 1557L1953 1557C1999.71 1557 2049.21 1561.84 2095 1551.35C2156.16 1537.33 2201.65 1491.68 2216.63 1431C2223.95 1401.34 2223 1371.3 2223 1341L2223 1229L2223 850C2223 787.986 2199.01 725.483 2143 693.427C2092.6 664.58 2034.88 669 1979 669L1710 669L973 669L733 669C693.975 669 651.667 664.348 613 669.424M0 1164L0 2669L583 2669L583 2668C517.615 2649.17 463.91 2606.02 449.211 2537C445.366 2518.95 445 2501.37 445 2483C445 2469.56 445.698 2455.28 437.073 2444.04C430.496 2435.47 416.731 2432.99 407 2429.32C390.782 2423.2 374.976 2415.27 360 2406.58C311.835 2378.62 274.509 2339.12 250.258 2289C224.361 2235.48 223 2176.12 223 2118L223 1973L223 1336C196.196 1336 168.533 1337.82 142 1333.56C86.9826 1324.72 40.4333 1288.97 16.2585 1239C9.0507 1224.1 4.1483 1207.44 2.15509 1191C1.16703 1182.85 3.11108 1171.41 0 1164M2667 1197C2657.56 1221.48 2650.08 1245.13 2634.97 1267C2628.34 1276.61 2620.34 1284.85 2612 1292.99C2566.67 1337.2 2503.74 1336 2445 1336L2445 1966C2445 2028.91 2446.79 2092.21 2444.04 2155C2442.09 2199.49 2440.74 2239.25 2422.58 2281C2400.01 2332.86 2360.08 2378.39 2311 2406.72C2295.55 2415.64 2279.68 2423.23 2263 2429.58C2252.51 2433.56 2239.08 2436.57 2231.21 2445.09C2219.25 2458.06 2224.66 2482.94 2223.96 2499C2222.72 2527.44 2216.7 2557.98 2202.58 2583C2186.92 2610.72 2163.51 2633.4 2135 2647.75C2124.93 2652.82 2114.68 2657.36 2104 2661C2097.82 2663.1 2090.43 2663.93 2086 2669L2668 2669L2668 1623L2668 1322L2668 1235C2668 1224.1 2671.21 1207.03 2667 1197M709 1780.42C679.006 1784.37 651.97 1793.16 627 1810.72C610.225 1822.52 595.97 1837.96 584.667 1855C573.88 1871.26 565.912 1889.91 561.79 1909C537.855 2019.88 630.077 2124.89 744 2110.71C768.33 2107.69 792.472 2099.06 813 2085.66C859.566 2055.26 889.821 2003.06 889.821 1947C889.821 1854.63 804.013 1767.91 709 1780.42M1932 1780.42C1902.35 1784.33 1874.62 1792.83 1850 1810.43C1758.34 1875.93 1755.69 2015.66 1849 2081.28C1865.28 2092.72 1883.72 2101.41 1903 2106.37C1923.66 2111.68 1944.81 2113.35 1966 2110.71C1990.46 2107.67 2014.18 2099.13 2035 2085.95C2051.72 2075.35 2066.25 2061.84 2078.1 2046C2146.39 1954.82 2100.83 1817.82 1991 1786.29C1972.38 1780.94 1951.36 1777.88 1932 1780.42M1001 2448C1001 2479.56 1003.49 2510.92 996.116 2542C980.658 2607.13 925.93 2652.85 862 2668L862 2669L1807 2669L1807 2668C1783.91 2659.09 1760.95 2652.88 1740 2639C1729.82 2632.25 1719.47 2624.23 1711.42 2615C1668.46 2565.69 1667 2510.08 1667 2448L1001 2448z"/>
</svg>
