<?xml version="1.0" encoding="UTF-8" standalone="no"?>
<!-- Created with Inkscape (http://www.inkscape.org/) -->

<svg
   width="13.999997"
   height="13.999997"
   viewBox="0 0 13.999997 13.999997"
   version="1.1"
   id="svg5"
   inkscape:version="1.2.1 (9c6d41e410, 2022-07-14)"
   sodipodi:docname="bondi.svg"
   inkscape:export-filename="bondi.png"
   inkscape:export-xdpi="96"
   inkscape:export-ydpi="96"
   xmlns:inkscape="http://www.inkscape.org/namespaces/inkscape"
   xmlns:sodipodi="http://sodipodi.sourceforge.net/DTD/sodipodi-0.dtd"
   xmlns="http://www.w3.org/2000/svg"
   xmlns:svg="http://www.w3.org/2000/svg">
  <sodipodi:namedview
     id="namedview7"
     pagecolor="#ffffff"
     bordercolor="#666666"
     borderopacity="1.0"
     inkscape:showpageshadow="2"
     inkscape:pageopacity="0.0"
     inkscape:pagecheckerboard="true"
     inkscape:deskcolor="#d1d1d1"
     inkscape:document-units="px"
     showgrid="true"
     showguides="true"
     inkscape:zoom="30.849356"
     inkscape:cx="5.4458188"
     inkscape:cy="5.7699746"
     inkscape:window-width="1366"
     inkscape:window-height="699"
     inkscape:window-x="0"
     inkscape:window-y="0"
     inkscape:window-maximized="1"
     inkscape:current-layer="layer1">
    <inkscape:grid
       type="xygrid"
       id="grid132"
       originx="0"
       originy="0" />
  </sodipodi:namedview>
  <defs
     id="defs2" />
  <g
     inkscape:label="Capa 1"
     inkscape:groupmode="layer"
     id="layer1"
     transform="translate(-48.418751,-56.356251)">
    <g
       id="g691">
      <rect
         style="fill:#ffc837;stroke-width:0.264583;paint-order:fill markers stroke;stop-color:#000000"
         id="rect682"
         width="12"
         height="13"
         x="49.418751"
         y="56.356251"
         ry="2.0000002" />
      <rect
         style="fill:#ffc837;stroke-width:0.264583;paint-order:fill markers stroke;stop-color:#000000"
         id="rect684"
         width="14"
         height="4"
         x="48.418751"
         y="62.356251"
         ry="1.0000001" />
      <rect
         style="fill:#ffc837;stroke-width:0.264583;paint-order:fill markers stroke;stop-color:#000000"
         id="rect686"
         width="10"
         height="3"
         x="50.418751"
         y="67.356255"
         ry="1.0000001" />
    </g>
    <path
       id="rect236"
       style="opacity:1;fill:#000000;stroke-width:0.264582;paint-order:fill markers stroke;stop-color:#000000"
       d="m 51.41874,57.35624 c -0.553996,0 -0.999999,0.446003 -0.999999,1.000003 v 4.999998 h -1.000003 v 2.000002 h 1.000003 v 2.000001 c 0,0.553996 0.446003,0.999999 0.999999,0.999999 v 0.999999 h 2.000001 v -0.999999 h 4 v 0.999999 h 2.000001 v -0.999999 c 0.553996,0 0.999999,-0.446003 0.999999,-0.999999 v -2.000001 h 0.999999 v -2.000002 h -0.999999 v -4.999998 c 0,-0.554 -0.446003,-1.000003 -0.999999,-1.000003 z m 0,1.000003 h 8.000002 v 7 H 51.41874 Z m 0,7.999999 h 2.000001 v 1.000002 H 51.41874 Z m 6.000001,0 h 2.000001 v 1.000002 h -2.000001 z" />
  </g>
</svg>
