<?xml version="1.0" standalone="no"?>
<!DOCTYPE svg PUBLIC "-//W3C//DTD SVG 20010904//EN"
 "http://www.w3.org/TR/2001/REC-SVG-20010904/DTD/svg10.dtd">
<svg version="1.0" xmlns="http://www.w3.org/2000/svg"
 width="100.000000pt" height="100.000000pt" viewBox="0 0 100.000000 100.000000"
 preserveAspectRatio="xMidYMid meet">

<g transform="translate(0.000000,100.000000) scale(0.100000,-0.100000)"
fill="#000000" stroke="none">
<path d="M445 887 c-68 -18 -150 -64 -186 -104 -110 -126 -130 -328 -46 -486
50 -96 136 -155 258 -177 163 -30 349 38 349 127 0 29 -50 83 -77 83 -10 0
-37 -9 -61 -20 -136 -62 -272 -16 -307 103 -67 226 99 381 307 287 56 -25 71
-25 103 3 36 31 38 86 5 122 -54 57 -235 90 -345 62z m268 -50 c59 -27 82 -55
72 -87 -12 -37 -42 -44 -93 -22 -65 28 -128 35 -187 22 -72 -16 -111 -47 -143
-110 -33 -68 -37 -178 -9 -252 48 -123 192 -169 336 -107 24 10 48 19 54 19
19 0 47 -33 47 -55 0 -28 -23 -48 -85 -77 -71 -32 -224 -32 -308 1 -77 30
-148 101 -178 178 -32 82 -33 233 0 315 24 61 88 135 140 162 100 52 256 58
354 13z"/>
</g>
</svg>
