<?xml version="1.0" encoding="UTF-8" standalone="no"?>
<!-- Created with Inkscape (http://www.inkscape.org/) -->

<svg
   width="48"
   height="48"
   viewBox="0 0 48 48"
   version="1.1"
   id="svg268"
   inkscape:version="1.2.1 (9c6d41e410, 2022-07-14)"
   sodipodi:docname="logo.svg"
   xmlns:inkscape="http://www.inkscape.org/namespaces/inkscape"
   xmlns:sodipodi="http://sodipodi.sourceforge.net/DTD/sodipodi-0.dtd"
   xmlns="http://www.w3.org/2000/svg"
   xmlns:svg="http://www.w3.org/2000/svg">
  <sodipodi:namedview
     id="namedview270"
     pagecolor="#ffc837"
     bordercolor="#000000"
     borderopacity="0.25"
     inkscape:showpageshadow="2"
     inkscape:pageopacity="0"
     inkscape:pagecheckerboard="0"
     inkscape:deskcolor="#d1d1d1"
     inkscape:document-units="px"
     showgrid="false"
     inkscape:zoom="13.455443"
     inkscape:cx="32.77484"
     inkscape:cy="31.734369"
     inkscape:window-width="1366"
     inkscape:window-height="699"
     inkscape:window-x="0"
     inkscape:window-y="0"
     inkscape:window-maximized="1"
     inkscape:current-layer="layer1" />
  <defs
     id="defs265">
    <inkscape:path-effect
       effect="simplify"
       id="path-effect553"
       is_visible="true"
       lpeversion="1"
       steps="1"
       threshold="0.00172414"
       smooth_angles="360"
       helper_size="0"
       simplify_individual_paths="false"
       simplify_just_coalesce="false" />
    <inkscape:path-effect
       effect="simplify"
       id="path-effect549"
       is_visible="true"
       lpeversion="1"
       steps="1"
       threshold="0.00172414"
       smooth_angles="360"
       helper_size="0"
       simplify_individual_paths="false"
       simplify_just_coalesce="false" />
    <inkscape:path-effect
       effect="simplify"
       id="path-effect545"
       is_visible="true"
       lpeversion="1"
       steps="1"
       threshold="0.00172414"
       smooth_angles="360"
       helper_size="0"
       simplify_individual_paths="false"
       simplify_just_coalesce="false" />
    <inkscape:path-effect
       effect="simplify"
       id="path-effect541"
       is_visible="true"
       lpeversion="1"
       steps="1"
       threshold="0.00172414"
       smooth_angles="360"
       helper_size="0"
       simplify_individual_paths="false"
       simplify_just_coalesce="false" />
    <inkscape:path-effect
       effect="simplify"
       id="path-effect537"
       is_visible="true"
       lpeversion="1"
       steps="1"
       threshold="0.00172414"
       smooth_angles="360"
       helper_size="0"
       simplify_individual_paths="false"
       simplify_just_coalesce="false" />
  </defs>
  <g
     inkscape:label="Capa 1"
     inkscape:groupmode="layer"
     id="layer1">
    <path
       style="fill:#ffffff;fill-opacity:1;stroke:none;stroke-width:1.70079;stroke-linecap:round;stroke-dasharray:none;paint-order:stroke markers fill"
       d="m 17.183845,41.217421 -8.6275065,-3.723206 -1.113127,-25.664239 14.9800035,1.698335 0.395976,-2.451603 11.306607,0.752325 8.562794,17.543396 -7.531976,7.593975 -6.715611,-4.658572 -8.745107,3.415399 z"
       id="path3422"
       sodipodi:nodetypes="ccccccccccc" />
    <path
       style="fill:none;stroke:#000000;stroke-width:1.70079;stroke-linecap:round;stroke-dasharray:none;paint-order:stroke markers fill"
       d="M 6.8949523,27.908822 C 6.4706908,27.310343 6.4439078,26.62663 6.4086792,25.910288 c -0.1197023,-2.434042 -0.09952,-4.873082 -0.078247,-7.308945 0.0167,-1.912233 0.4793003,-3.752123 0.6979396,-5.65555 0.07805,-0.679491 -0.4453248,-2.236764 0.1579643,-2.108646 0.7928234,0.168369 1.5468025,0.460833 2.3659732,0.56468 2.1454698,0.271983 4.5181028,-0.34999 6.4574968,0.607224 0.840058,0.414622 1.718964,0.736882 2.672252,0.813199 0.229862,0.0184 0.460461,0.02759 0.691058,0.02763"
       id="path535"
       inkscape:path-effect="#path-effect537"
       inkscape:original-d="M 6.8949523,27.908822 C 6.7377077,27.571889 6.5201722,27.256979 6.4232185,26.898023 c -0.063948,-0.236758 0.014825,-0.490932 0,-0.735724 C 6.3146624,24.369851 6.318115,22.585583 6.318115,20.786832 c 0,-1.36857 -0.041995,-2.18251 0.126042,-3.545189 0.1407487,-1.141384 0.4802815,-2.28612 0.5571305,-3.438854 0.00999,-0.149809 0.079,-2.884021 0.1051034,-2.942896 0.031775,-0.07167 0.4067999,0.04158 0.5973653,0.105103 0.8259083,0.275303 0.8703963,0.323353 1.9464678,0.448332 1.406592,0.163366 3.092558,0.255165 4.54901,0.378126 0.151594,0.0128 1.45932,0.112221 1.810572,0.217597 0.393276,0.117983 0.766329,0.395581 1.156138,0.525517 0.67773,0.225911 1.494837,0.315311 2.207172,0.315311" />
    <path
       style="fill:none;stroke:#000000;stroke-width:1.70079;stroke-linecap:round;stroke-dasharray:none;paint-order:stroke markers fill"
       d="m 6.6551851,20.311813 c 1.7127098,0.370627 3.4773279,0.222273 5.2152299,0.323762 0.533892,0.03118 1.071983,0.04526 1.599977,-0.08594 0.256314,-0.06369 0.516526,-0.12401 0.782215,-0.122868"
       id="path539"
       inkscape:path-effect="#path-effect541"
       inkscape:original-d="m 6.6551851,20.311813 c 1.6540542,0.353938 3.3333554,0.318595 5.0133549,0.318595 0.399712,0 1.018856,0.08361 1.448047,0 0.388556,-0.07569 0.729641,-0.203638 1.13602,-0.203638" />
    <path
       style="fill:none;stroke:#000000;stroke-width:1.70079;stroke-linecap:round;stroke-dasharray:none;paint-order:stroke markers fill"
       d="m 21.681697,26.570646 c 0.180521,-0.759706 0.091,-1.545647 0.241492,-2.316862 0.23088,-1.183169 0.277668,-2.402264 0.0238,-3.582298 -0.232949,-1.082805 0.113066,-2.141144 0.200349,-3.212999 0.09777,-1.200584 -0.273807,-2.44112 0.02198,-3.604912 0.24799,-0.975735 0.625875,-2.096811 0.151638,-2.987291 -0.45993,-0.863615 0.707507,-0.560077 1.253298,-0.654031 1.206583,-0.207705 2.409954,-0.8888674 3.619139,-0.6452247 0.952994,0.1920219 1.788398,0.7666597 2.672414,1.1671387 1.010783,0.457907 1.635443,1.426028 2.595937,1.95199 0.995083,0.544903 1.782504,1.381673 2.303666,2.402604 0.906968,1.776705 2.225738,3.322693 2.865939,5.250602 0.590837,1.779253 2.441845,2.993654 2.555945,4.951977"
       id="path543"
       inkscape:path-effect="#path-effect545"
       inkscape:original-d="m 21.681697,26.570646 c 0.03462,-0.184753 0.08746,-0.367006 0.103872,-0.554257 0.01836,-0.209404 -0.01498,-0.420948 0,-0.630621 0.07864,-1.101003 0.385524,-2.188149 0.320237,-3.298031 -0.05602,-0.952269 -0.297418,-1.87847 -0.210207,-2.837793 0.03859,-0.424463 0.171619,-0.836779 0.210207,-1.261242 0.08573,-0.943054 0.105103,-1.882711 0.105103,-2.834919 0,-0.466576 -0.112001,-1.123619 0,-1.571625 0.109929,-0.439716 0.210207,-0.902054 0.210207,-1.366345 0,-0.430934 -0.0028,-0.788892 -0.10305,-1.192678 -0.02506,-0.100944 0.03277,-0.213316 0,-0.312026 -0.0025,-0.0074 -0.15657,-0.236098 -0.103872,-0.314078 0.08306,-0.122915 0.29887,0.02529 0.445047,0 0.700902,-0.121278 1.390143,-0.303101 2.088931,-0.4360158 0.783936,-0.14911 1.942205,-0.550087 2.769641,-0.343228 0.51561,0.128903 0.610035,0.319722 0.999304,0.4754288 0.795891,0.318356 1.637641,0.755265 2.312276,1.261241 0.378893,0.28417 0.657768,0.665027 1.051034,0.945931 0.763474,0.545339 1.59815,0.920377 2.207173,1.681656 0.428263,0.535329 0.701531,1.204556 1.051034,1.786758 0.660238,1.099825 1.424965,2.112154 2.000661,3.263545 0.302152,0.604305 0.433571,1.287557 0.735724,1.891862 0.658971,1.317942 2.312276,2.840772 2.312276,4.367131" />
    <path
       style="fill:none;stroke:#000000;stroke-width:1.70079;stroke-linecap:round;stroke-dasharray:none;paint-order:stroke markers fill"
       d="m 29.894136,10.94595 c -0.0024,1.339049 0.110906,2.683123 -0.0038,4.017194 -0.04989,0.580119 -0.171489,1.365067 0.319131,1.702322 0.287639,0.197725 0.302065,0.575578 0.314189,0.891644 0.01382,0.360355 -0.0224,0.720057 -0.02351,1.080278"
       id="path547"
       inkscape:path-effect="#path-effect549"
       inkscape:original-d="m 29.894136,10.94595 c 0,1.279853 0,2.559707 0,3.83956 0,0.315311 -0.04459,0.63379 0,0.945931 0.04456,0.311957 0.13678,0.666229 0.31531,0.934025 0.02294,0.0344 0.175048,0.158849 0.185574,0.185163 0.21103,0.527575 0.105103,1.224618 0.105103,1.786759" />
    <path
       style="fill:none;stroke:#000000;stroke-width:1.70079;stroke-linecap:round;stroke-dasharray:none;paint-order:stroke markers fill"
       d="m 6.2618682,30.880869 c 0.187311,1.311214 0.2585443,3.000737 1.2504869,3.912709 0.8283928,0.761608 1.4964207,1.987487 2.6317819,2.143362 1.033893,0.141944 1.673422,0.621046 3.05333,0.630315 1.377101,0.0092 2.393614,-1.14757 2.819901,-2.355134 0.326758,-0.925624 0.684348,-1.83932 0.747458,-2.81341 0.03654,-0.564005 -0.635076,-0.839261 0.332687,-1.055166 2.414625,-0.538695 4.834031,-1.108592 7.175214,-1.909168 1.244686,-0.425625 4.016634,-1.98483 3.951203,-0.672512 -0.05169,1.036766 0.300062,2.110509 0.672687,3.083267 0.408515,1.066451 1.189028,2.013285 2.271502,2.520578 1.06632,0.499722 2.146222,-0.172526 3.095228,-0.606268 1.23275,-0.563427 1.942956,-1.980035 1.853692,-3.192181 -0.09002,-1.222396 1.257984,-1.341885 2.170942,-1.512816 0.72325,-0.135412 1.451429,-0.262631 2.186296,-0.311775"
       id="path551"
       inkscape:path-effect="#path-effect553"
       inkscape:original-d="m 6.2618682,30.880869 c -0.1183861,0.691214 0.2152708,1.238661 0.4204139,1.85409 0.1672258,0.501678 0.1844956,1.103484 0.4204138,1.575321 0.1742498,0.348499 2.1219216,2.134508 2.4161491,2.311044 1.013467,0.608079 0.2335635,0.05839 1.261243,0.525517 0.472413,0.214734 1.236254,0.845825 1.786758,0.735724 0.230455,-0.04609 0.407663,-0.240991 0.630621,-0.31531 0.235018,-0.07834 0.500706,-0.02676 0.735724,-0.105103 0.412296,-0.137432 0.986075,-0.49687 1.261242,-0.840828 0.496346,-0.620433 0.860787,-1.356685 1.051034,-2.102069 0.0472,-0.184926 -0.04629,-0.405632 0,-0.590797 0.038,-0.152 0.160486,-0.271833 0.210207,-0.420413 0.07007,-0.209396 0.127821,-0.871364 0.20528,-1.005463 0.02449,-0.0424 0.0885,-0.05738 0.103872,-0.103871 0.116045,-0.350888 -0.32486,-0.861593 -0.311205,-0.877368 0.06535,-0.0755 1.21527,-0.293934 1.309277,-0.314079 1.095251,-0.234696 2.176201,-0.570399 3.258618,-0.840827 0.766639,-0.191535 1.551409,-0.413113 2.312686,-0.630621 1.268126,-0.362322 2.449162,-0.939821 3.783725,-1.051035 0.209481,-0.01746 0.420414,0 0.630621,0 0.140137,0 0.29175,-0.05554 0.420413,0 0.141857,0.06123 -0.03468,0.312957 0,0.463523 0.08966,0.389263 0.22549,0.766913 0.315311,1.156138 0.239046,1.035865 0.475161,2.091676 1.156138,2.942897 0.108905,0.136131 0.311508,0.284282 0.420414,0.420414 0.07891,0.09864 0.120886,0.225989 0.210206,0.31531 0.188667,0.188666 0.491906,0.206947 0.735725,0.31531 0.426033,0.189349 0.886982,0.306277 1.364702,0.210207 0.170165,-0.03422 0.763272,-0.287556 0.839596,-0.31531 2.000593,-0.727488 1.982712,-0.98556 2.73269,-3.048 0.133597,-0.367392 0.223422,-0.788585 0.31531,-1.156138 0.01699,-0.06798 -0.02856,-0.146223 0,-0.210207 0.245618,-0.550273 3.759783,-1.036255 4.215224,-1.036255" />
  </g>
</svg>
